<?xml version="1.0" standalone="no"?>
<!DOCTYPE svg PUBLIC "-//W3C//DTD SVG 20010904//EN"
 "http://www.w3.org/TR/2001/REC-SVG-20010904/DTD/svg10.dtd">
<svg version="1.0" xmlns="http://www.w3.org/2000/svg"
 width="225.000000pt" height="225.000000pt" viewBox="0 0 225.000000 225.000000"
 preserveAspectRatio="xMidYMid meet">

<g transform="translate(0.000000,225.000000) scale(0.100000,-0.100000)"
fill="#fff" stroke="none">
<path d="M490 1880 l0 -160 -105 0 -105 0 0 -615 0 -615 300 0 300 0 0 -125 0
-125 -125 0 c-104 0 -125 -2 -125 -15 0 -13 62 -15 495 -15 433 0 495 2 495
15 0 13 -21 15 -125 15 l-125 0 0 125 0 125 300 0 300 0 0 615 0 615 -335 0
-335 0 0 68 0 67 -93 93 -92 92 -313 0 -312 0 0 -160z m600 40 l0 -90 90 0 90
0 0 -285 c0 -157 -3 -284 -7 -283 -5 2 -27 -3 -50 -11 -34 -11 -43 -19 -43
-38 0 -18 -6 -23 -24 -23 -19 0 -27 -9 -40 -41 -15 -38 -15 -43 -1 -59 14 -16
14 -18 0 -30 -9 -7 -14 -19 -11 -27 4 -11 -45 -13 -279 -13 l-285 0 0 495 0
495 280 0 280 0 0 -90z m100 -5 l54 -55 -62 0 -62 0 0 55 c0 30 4 55 8 55 4 0
32 -25 62 -55z m-700 -260 l0 -35 -50 0 -50 0 0 -405 0 -405 735 0 735 0 0
238 c0 167 3 241 12 250 8 8 8 15 -1 25 -9 12 -7 16 9 20 29 8 29 83 -1 92
-16 5 -18 9 -8 21 9 11 9 18 1 26 -7 7 -12 40 -12 75 l0 63 -280 0 -280 0 0
35 0 35 318 -2 317 -3 1 -472 1 -473 -812 0 -813 0 0 468 c0 257 2 470 5 475
2 4 42 7 89 7 l84 0 0 -35z m0 -370 l0 -295 309 0 c265 0 310 -2 315 -15 3 -8
17 -15 32 -15 23 0 25 -3 20 -24 -5 -21 0 -26 41 -41 45 -17 47 -17 60 1 14
19 15 19 28 0 14 -18 16 -18 60 -1 42 15 46 20 40 42 -5 23 -4 25 20 19 23 -6
28 -2 44 36 17 39 17 45 3 61 -14 16 -14 19 0 34 15 14 15 19 0 60 -14 38 -20
43 -39 38 -19 -4 -23 -1 -23 20 0 21 -8 30 -42 45 -23 10 -46 16 -50 14 -4 -3
-8 67 -8 155 l0 161 265 0 265 0 0 -25 c0 -33 -36 -53 -45 -25 -9 29 -81 29
-90 -1 -5 -16 -9 -18 -21 -8 -13 10 -21 7 -46 -19 -26 -25 -29 -33 -19 -46 10
-12 8 -16 -8 -21 -30 -9 -30 -84 -1 -92 16 -4 18 -8 9 -20 -16 -19 36 -76 63
-67 11 3 20 -1 24 -10 8 -21 73 -21 88 0 7 9 18 12 29 8 15 -5 17 -26 17 -210
l0 -204 -705 0 -705 0 0 370 0 370 35 0 35 0 0 -295z m1270 207 c0 -28 11 -34
36 -17 31 20 50 -1 29 -32 -16 -23 -11 -33 17 -33 29 0 23 -37 -8 -44 -25 -7
-25 -8 -10 -30 21 -33 0 -53 -31 -31 -20 14 -22 13 -32 -15 -11 -32 -29 -39
-36 -15 -16 50 -13 47 -37 31 -32 -23 -53 -3 -32 30 15 22 15 23 -10 30 -31 7
-37 44 -8 44 28 0 33 10 17 33 -21 31 -2 52 29 32 25 -17 36 -11 36 17 0 11 7
18 20 18 13 0 20 -7 20 -18z m-455 -292 c34 32 62 20 57 -23 -4 -33 -3 -33 31
-29 28 3 35 0 40 -17 3 -15 -3 -27 -21 -41 l-27 -20 27 -21 c23 -17 26 -24 17
-40 -8 -16 -17 -18 -43 -14 -32 6 -32 6 -28 -28 5 -47 -24 -59 -55 -23 l-22
26 -20 -26 c-15 -19 -26 -24 -41 -19 -18 6 -20 12 -14 42 l7 36 -36 -6 c-31
-5 -37 -2 -43 15 -5 16 0 26 21 41 l27 20 -27 21 c-36 29 -25 56 22 56 34 0
35 1 31 31 -4 24 -1 32 16 38 15 6 25 2 39 -16 l19 -24 23 21z m633 -585 l0
-85 -813 0 -812 0 -1 85 -1 85 813 0 814 0 0 -85z m-600 -247 l-3 -123 -210 0
-210 0 -3 123 -3 122 216 0 216 0 -3 -122z"/>
<path d="M797 1832 l-97 -57 0 -105 0 -106 96 -55 c53 -29 102 -53 108 -51 6
2 50 26 99 54 l87 50 0 108 0 108 -77 45 c-43 24 -87 49 -98 55 -17 9 -37 1
-118 -46z m171 -22 c34 -19 62 -37 62 -40 0 -5 -125 -80 -133 -80 -3 0 -35 18
-72 39 -67 39 -67 39 -43 54 46 31 113 67 118 64 3 -1 33 -18 68 -37z m-109
-140 c20 -14 22 -22 19 -92 l-3 -76 -67 39 -68 40 0 80 0 79 48 -27 c27 -16
59 -35 71 -43z m201 -8 c0 -63 -3 -79 -17 -88 -10 -6 -44 -26 -75 -43 l-58
-33 0 80 0 80 68 40 c37 22 70 41 75 41 4 1 7 -34 7 -77z"/>
<path d="M870 1351 c0 -14 5 -18 18 -14 55 14 132 -59 132 -124 0 -23 5 -33
15 -33 22 0 19 67 -4 110 -22 42 -83 80 -128 80 -26 0 -33 -4 -33 -19z"/>
<path d="M804 1339 c-10 -17 13 -36 27 -22 12 12 4 33 -11 33 -5 0 -12 -5 -16
-11z"/>
<path d="M757 1285 c-8 -18 11 -31 25 -17 11 11 3 32 -12 32 -4 0 -10 -7 -13
-15z"/>
<path d="M866 1271 c-28 -29 -28 -58 0 -47 11 4 14 -4 14 -34 0 -29 4 -40 15
-40 11 0 15 11 15 41 0 35 2 40 19 34 33 -10 32 10 -2 43 l-33 32 -28 -29z"/>
<path d="M740 1209 c0 -24 23 -21 28 4 2 10 -3 17 -12 17 -10 0 -16 -9 -16
-21z"/>
<path d="M756 1151 c-7 -11 18 -33 27 -24 4 3 7 12 7 20 0 15 -26 18 -34 4z"/>
<path d="M994 1139 c-10 -17 13 -36 27 -22 12 12 4 33 -11 33 -5 0 -12 -5 -16
-11z"/>
<path d="M804 1099 c-7 -12 15 -31 28 -23 4 3 8 12 8 20 0 17 -26 19 -36 3z"/>
<path d="M940 1085 c0 -10 7 -15 18 -13 21 4 19 22 -2 26 -10 2 -16 -3 -16
-13z"/>
<path d="M870 1075 c0 -8 9 -15 20 -15 13 0 18 5 14 15 -4 8 -12 15 -20 15 -8
0 -14 -7 -14 -15z"/>
<path d="M1560 1455 c0 -8 7 -15 15 -15 9 0 12 6 9 15 -4 8 -10 15 -15 15 -5
0 -9 -7 -9 -15z"/>
<path d="M1503 1432 c-20 -12 2 -36 21 -25 14 8 15 11 4 21 -8 6 -19 8 -25 4z"/>
<path d="M1436 1391 c-7 -11 18 -33 27 -24 4 3 7 12 7 20 0 15 -26 18 -34 4z"/>
<path d="M1383 1363 c-16 -6 -5 -33 13 -33 8 0 14 6 14 14 0 18 -11 25 -27 19z"/>
<path d="M1316 1322 c-2 -4 -1 -14 4 -22 7 -11 12 -12 21 -3 6 6 8 16 5 22 -8
13 -23 14 -30 3z"/>
<path d="M1714 1209 c-3 -6 -2 -15 2 -19 12 -12 38 5 30 19 -9 14 -23 14 -32
0z"/>
<path d="M1660 1170 c-12 -7 -12 -12 -2 -22 9 -9 15 -9 24 0 16 16 -2 34 -22
22z"/>
<path d="M1600 1116 c0 -8 4 -17 9 -20 11 -7 33 18 24 27 -12 12 -33 7 -33 -7z"/>
<path d="M1550 1080 c-12 -7 -12 -12 -2 -22 9 -9 15 -9 24 0 16 16 -2 34 -22
22z"/>
<path d="M1492 1028 c5 -15 28 -18 29 -3 0 6 -7 12 -17 13 -10 3 -15 -1 -12
-10z"/>
<path d="M1706 1424 c-19 -18 -21 -55 -4 -72 7 -7 24 -12 38 -12 14 0 31 5 38
12 28 28 2 88 -38 88 -10 0 -26 -7 -34 -16z m50 -25 c10 -17 -13 -36 -27 -22
-12 12 -4 33 11 33 5 0 12 -5 16 -11z"/>
<path d="M1238 1094 c-13 -27 -5 -49 24 -68 27 -17 68 8 68 42 0 36 -16 52
-52 52 -21 0 -32 -7 -40 -26z m62 -17 c0 -8 -3 -17 -7 -20 -9 -9 -34 13 -27
24 8 14 34 11 34 -4z"/>
<path d="M1020 615 l0 -55 105 0 105 0 0 55 0 55 -105 0 -105 0 0 -55z m180 0
c0 -12 -15 -15 -75 -15 -60 0 -75 3 -75 15 0 12 15 15 75 15 60 0 75 -3 75
-15z"/>
</g>
</svg>
