<?xml version="1.0" standalone="no"?>
<!DOCTYPE svg PUBLIC "-//W3C//DTD SVG 20010904//EN"
 "http://www.w3.org/TR/2001/REC-SVG-20010904/DTD/svg10.dtd">
<svg version="1.0" xmlns="http://www.w3.org/2000/svg"
 width="200.000000pt" height="200.000000pt" viewBox="0 0 200.000000 200.000000"
 preserveAspectRatio="xMidYMid meet">

<g transform="translate(0.000000,200.000000) scale(0.100000,-0.100000)"
fill="#000000" stroke="none">
<path d="M673 1934 c-22 -22 -25 -32 -21 -74 l5 -49 -239 -218 c-151 -137
-246 -217 -256 -215 -73 16 -98 13 -124 -11 -70 -65 -32 -177 60 -177 34 0 41
-4 57 -34 27 -50 17 -64 -43 -58 -44 4 -54 1 -76 -21 -46 -46 -46 -108 0 -154
22 -22 32 -25 75 -21 61 6 75 -9 51 -59 -14 -30 -20 -33 -60 -33 -35 0 -49 -6
-73 -29 -67 -68 -5 -186 88 -168 16 3 36 7 45 9 11 2 104 -76 256 -214 l239
-218 -5 -49 c-4 -43 -1 -53 21 -75 45 -45 133 -25 152 34 6 19 16 20 165 20
l159 0 16 -30 c24 -47 79 -65 126 -40 29 16 52 68 43 99 -4 14 -8 29 -8 32 -1
4 111 106 249 228 175 155 254 219 265 214 8 -3 33 -8 55 -11 33 -3 46 1 67
21 72 67 31 177 -65 177 l-45 0 -51 92 c-28 50 -51 94 -51 98 0 4 23 48 51 98
l51 92 43 0 c97 0 139 110 67 177 -21 20 -34 24 -67 21 -22 -3 -47 -8 -55 -12
-11 -4 -88 58 -265 215 -138 123 -250 225 -249 228 0 3 4 18 8 32 9 31 -14 83
-43 99 -47 25 -102 7 -126 -40 l-16 -30 -159 0 c-149 0 -159 1 -165 20 -19 59
-107 79 -152 34z m481 -83 c4 -5 -46 -37 -110 -70 l-115 -62 -55 47 c-56 48
-58 52 -48 78 5 14 29 16 164 16 88 0 161 -4 164 -9z m-39 -77 c-22 -20 -59
-52 -83 -72 -43 -35 -43 -35 -63 -16 -19 19 -18 20 79 72 53 28 99 51 102 51
3 0 -13 -16 -35 -35z m-264 -16 c27 -22 49 -45 49 -49 0 -15 -43 -22 -51 -8
-5 8 -20 33 -34 57 -14 23 -23 42 -20 42 4 0 29 -19 56 -42z m319 5 c-12 -21
-39 -66 -58 -100 -20 -35 -39 -63 -42 -63 -4 0 -18 12 -33 28 l-26 27 82 72
c45 39 86 72 90 72 5 1 -1 -16 -13 -36z m400 -198 c129 -115 235 -212 234
-217 -1 -4 -2 -12 -2 -17 -1 -5 -27 -3 -59 4 -32 7 -93 21 -135 30 l-77 17
-104 186 c-58 103 -110 198 -117 212 -16 31 -39 50 260 -215z m-803 166 c7
-24 15 -52 18 -62 5 -15 -13 -28 -106 -74 l-111 -56 30 53 c16 29 46 84 67
121 33 60 41 68 63 65 21 -2 29 -11 39 -47z m625 -144 c59 -105 106 -192 105
-193 -1 -1 -37 5 -80 14 -69 14 -78 19 -84 42 -13 58 -73 91 -125 69 -43 -18
-55 -1 -39 53 61 208 61 208 89 208 25 -1 37 -18 134 -193z m-824 71 c-45 -62
-95 -132 -112 -154 -24 -33 -55 -54 -145 -98 -62 -32 -115 -56 -116 -54 -3 3
446 418 452 418 2 0 -34 -51 -79 -112z m259 10 c-13 -8 -29 22 -41 77 -5 25
-1 21 23 -20 22 -36 27 -52 18 -57z m341 -21 l-31 -107 -24 22 -23 21 21 36
c12 20 35 60 51 89 17 29 32 51 34 49 2 -2 -10 -52 -28 -110z m-213 23 c17
-18 16 -20 -11 -44 -16 -14 -31 -25 -34 -26 -6 0 -42 62 -38 65 13 9 45 24 54
25 6 0 19 -9 29 -20z m-377 -69 c-36 -67 -67 -101 -93 -101 -3 0 25 41 61 90
36 50 68 90 70 90 3 0 -14 -36 -38 -79z m295 18 c17 -30 17 -33 1 -50 -24 -27
-29 -24 -43 21 -19 65 10 85 42 29z m-57 -96 c-5 -11 -13 -13 -34 -7 -68 19
-127 -9 -134 -65 -3 -23 -10 -27 -78 -43 -41 -9 -75 -16 -77 -14 -2 1 10 27
26 56 29 52 35 57 153 116 l123 62 13 -45 c8 -24 11 -51 8 -60z m217 79 l26
-27 -33 -58 c-36 -64 -34 -65 -79 15 l-27 47 33 25 c40 32 47 32 80 -2z m-96
-97 l32 -55 -49 0 c-45 0 -49 2 -59 32 -10 27 -8 34 11 55 12 13 24 23 28 23
3 0 20 -25 37 -55z m171 32 c17 -18 20 -29 14 -52 -8 -27 -13 -30 -55 -33 -26
-2 -47 0 -47 3 0 11 55 105 61 105 3 0 15 -10 27 -23z m-265 -67 c3 -14 1 -20
-6 -17 -7 2 -14 14 -15 26 -4 28 13 20 21 -9z m317 -1 c-6 -10 -15 -19 -21
-19 -6 0 -8 3 -6 8 2 4 7 15 10 25 4 10 11 15 17 12 7 -4 7 -13 0 -26z m-675
-38 c-19 -39 -31 -51 -55 -56 -17 -4 -33 -5 -36 -3 -12 13 83 108 109 108 4 0
-4 -22 -18 -49z m-112 -45 c-17 -25 -49 -38 -123 -50 -27 -5 -15 4 50 38 47
24 87 42 88 41 2 -2 -4 -15 -15 -29z m495 -5 c17 -54 16 -55 -17 -29 -29 22
-38 47 -24 61 15 16 31 4 41 -32z m78 -3 c-31 -53 -42 -57 -49 -21 -3 15 -9
36 -12 46 -6 15 -1 17 39 17 l47 0 -25 -42z m150 25 c-3 -10 -8 -30 -12 -45
-3 -16 -9 -28 -13 -28 -7 0 -51 72 -51 84 0 3 18 6 41 6 34 0 40 -3 35 -17z
m67 -3 c3 -14 -5 -27 -31 -46 -30 -23 -34 -25 -28 -8 4 10 10 31 13 47 6 32
38 37 46 7z m-131 -132 c-32 -35 -42 -35 -81 -2 l-31 26 27 46 c45 79 43 78
79 15 l33 -58 -27 -27z m-382 125 c-1 -10 -243 -173 -248 -168 -2 2 13 34 34
71 l39 67 70 18 c80 19 105 22 105 12z m779 -10 c92 -19 84 -12 160 -145 l32
-57 -28 -14 c-65 -33 -62 -35 -172 88 -65 74 -101 121 -97 130 7 19 4 19 105
-2z m-1275 -34 c37 -29 37 -89 0 -118 -47 -37 -102 -24 -124 29 -10 24 -10 36
0 60 22 53 77 66 124 29z m1785 11 c31 -16 46 -65 31 -100 -34 -81 -150 -58
-150 30 0 61 65 99 119 70z m-1296 -13 c-4 -8 -46 -57 -93 -110 -89 -102 -90
-103 -148 -73 -22 11 -16 17 110 104 73 50 134 91 136 92 2 0 -1 -6 -5 -13z
m153 -93 l30 -78 -24 -43 c-21 -39 -27 -43 -62 -43 -22 0 -47 -8 -62 -20 l-25
-19 -82 36 c-45 21 -80 41 -79 45 2 5 45 57 97 117 l94 108 41 -12 c39 -12 42
-16 72 -91z m67 58 c25 -26 27 -32 16 -51 -13 -20 -15 -18 -46 32 -18 28 -33
56 -33 60 0 12 33 -9 63 -41z m290 -13 c-36 -60 -37 -60 -49 -37 -13 21 -11
26 29 60 23 21 45 38 49 38 4 0 -9 -27 -29 -61z m294 -107 c31 -34 54 -64 52
-66 -2 -2 -41 -20 -87 -40 l-84 -36 -25 20 c-15 12 -41 20 -63 20 -34 0 -39 4
-60 44 l-24 44 33 85 c21 53 38 84 45 81 7 -3 23 0 37 5 26 11 37 1 176 -157z
m-1048 81 c-23 -43 -43 -79 -44 -81 -1 -1 -19 5 -39 13 l-37 16 42 59 c41 58
52 67 97 69 23 1 22 -1 -19 -76z m1268 57 c48 -11 98 -22 111 -25 14 -3 22
-13 22 -25 0 -16 -18 -29 -77 -56 l-78 -35 -15 22 c-8 12 -30 49 -47 81 -38
67 -40 66 84 38z m-1344 -12 c-5 -7 -22 -30 -37 -50 -27 -37 -29 -37 -57 -22
-47 24 -34 49 37 69 64 17 68 17 57 3z m836 -78 c-6 -16 -15 -30 -20 -30 -5 0
-3 14 6 30 9 17 17 30 20 30 2 0 -1 -13 -6 -30z m-309 -22 c0 -4 -4 -8 -10 -8
-5 0 -10 4 -10 9 0 5 -3 18 -6 28 -5 16 -4 16 10 -1 9 -11 16 -23 16 -28z m64
10 c8 -32 7 -58 -2 -58 -14 0 -33 41 -27 61 8 26 21 24 29 -3z m56 -10 c0 -8
-20 -22 -24 -17 -2 2 -7 14 -11 27 -6 22 -5 22 14 10 12 -7 21 -16 21 -20z
m80 20 c0 -22 -17 -41 -30 -33 -8 5 -7 12 6 26 20 22 24 23 24 7z m45 -8 c7
-21 -10 -60 -25 -60 -12 0 -12 7 -4 49 7 35 20 40 29 11z m-855 -20 c0 -4 -6
-13 -13 -19 -11 -8 -18 -6 -31 8 -24 27 -13 44 19 29 14 -6 25 -14 25 -18z
m1573 6 c-12 -21 -113 -129 -117 -125 -1 2 -12 20 -24 39 l-22 35 78 36 c76
36 100 40 85 15z m-1616 -62 c-4 -4 -14 1 -22 12 -22 29 -18 41 7 17 12 -13
19 -26 15 -29z m122 26 c10 -5 6 -12 -15 -29 -32 -25 -57 -24 -62 2 -8 40 28
53 77 27z m694 2 c15 -16 15 -22 -2 -77 -19 -63 -21 -63 -45 17 -12 41 -12 48
2 62 21 20 25 20 45 -2z m-123 -33 c0 -19 -20 -18 -30 1 -15 28 -1 49 17 25 7
-11 13 -22 13 -26z m234 3 c-7 -23 -19 -29 -29 -12 -8 12 17 52 27 42 4 -4 5
-17 2 -30z m661 -39 c-47 -86 -51 -89 -64 -66 -8 17 -2 29 40 77 28 31 53 56
56 56 2 0 -12 -30 -32 -67z m-1345 5 c0 -5 -19 -29 -42 -54 l-41 -45 -23 22
-23 22 24 48 25 48 40 -16 c22 -9 40 -20 40 -25z m1216 -4 l27 -45 -24 -25
-24 -26 -42 48 c-24 27 -43 51 -43 54 0 3 17 12 38 22 20 9 38 17 39 17 1 1
14 -19 29 -45z m-713 14 c9 -31 2 -33 -11 -3 -6 14 -8 25 -3 25 5 0 11 -10 14
-22z m117 14 c0 -5 -7 -17 -16 -28 -8 -10 -14 -14 -11 -9 2 6 7 18 10 28 7 17
17 23 17 9z m-230 -47 c-30 -32 -36 -26 -15 15 12 24 20 29 28 21 8 -8 4 -18
-13 -36z m345 4 c9 -16 12 -29 8 -29 -15 0 -51 43 -46 56 7 18 20 9 38 -27z
m-939 20 c3 -6 0 -15 -7 -20 -14 -8 -32 9 -23 23 7 11 22 10 30 -3z m74 -9
c-6 -11 -15 -18 -21 -14 -6 4 -6 11 2 20 17 21 31 17 19 -6z m631 -48 l31 -52
-30 0 c-26 0 -31 6 -46 45 -17 43 -14 69 6 63 5 -2 23 -27 39 -56z m154 48 c4
-6 -1 -31 -11 -55 -15 -39 -20 -45 -46 -45 l-30 0 23 38 c13 20 28 45 33 55
12 19 22 22 31 7z m-534 -41 c49 -23 89 -46 89 -50 0 -5 -58 -9 -130 -9 -72 0
-130 3 -130 6 0 6 73 93 78 94 2 0 44 -19 93 -41z m1006 -10 c26 -28 48 -55
48 -58 0 -4 -21 -31 -47 -59 l-46 -52 -94 41 c-88 38 -95 43 -95 69 0 26 8 32
91 69 50 22 92 41 93 41 1 0 24 -23 50 -51z m-1372 21 c-3 -5 -11 -10 -16 -10
-6 0 -7 5 -4 10 3 6 11 10 16 10 6 0 7 -4 4 -10z m81 -4 c3 -8 0 -25 -7 -37
l-12 -23 -14 29 c-13 23 -13 29 -1 36 19 12 28 11 34 -5z m602 -33 c11 -32 10
-33 -18 -33 -37 0 -50 33 -24 61 20 22 27 18 42 -28z m282 -5 c0 -21 -19 -31
-48 -26 -19 3 -19 5 -5 41 15 36 16 37 34 21 11 -9 19 -26 19 -36z m-1006 21
c37 -29 37 -89 0 -118 -47 -37 -102 -24 -124 29 -10 24 -10 36 0 60 22 53 77
66 124 29z m76 -41 c0 -4 -7 -8 -15 -8 -10 0 -15 10 -15 28 1 26 1 26 15 8 8
-11 15 -23 15 -28z m90 7 c11 -13 8 -15 -13 -15 -19 0 -25 4 -21 15 4 8 10 15
14 15 4 0 13 -7 20 -15z m1390 -5 c11 -20 -1 -60 -18 -60 -14 0 -32 23 -32 40
0 17 18 40 32 40 4 0 12 -9 18 -20z m-1470 -37 c-1 -16 -29 -45 -38 -39 -16
10 -1 46 19 46 11 0 19 -3 19 -7z m75 -13 c-14 -16 -20 -17 -27 -8 -13 22 -9
28 19 28 26 0 26 0 8 -20z m335 11 c0 -8 -181 -95 -184 -89 0 2 -21 25 -46 51
l-44 47 137 0 c75 0 137 -4 137 -9z m263 -28 c10 -26 12 -44 6 -55 -13 -25
-20 -23 -64 15 -30 26 -36 37 -31 55 6 17 15 22 41 22 29 0 35 -5 48 -37z m45
12 c-8 -19 -14 -22 -20 -13 -14 22 -9 38 12 38 17 0 18 -3 8 -25z m95 5 c-3
-11 -9 -20 -14 -20 -4 0 -13 9 -19 20 -9 17 -8 20 14 20 19 0 23 -4 19 -20z
m105 -6 c3 -20 -56 -84 -78 -84 -21 0 -27 34 -12 72 14 36 18 39 51 36 28 -2
37 -8 39 -24z m-718 -82 c0 -6 -12 -15 -27 -20 -16 -5 -35 -13 -43 -16 -11 -4
-22 7 -39 39 l-24 45 24 26 24 25 42 -45 c24 -25 43 -49 43 -54z m1225 17
c-30 -58 -32 -59 -75 -41 -22 10 -40 20 -40 23 0 3 19 27 42 53 l41 48 24 -25
c24 -24 25 -25 8 -58z m-1385 30 c0 -13 -17 -19 -34 -13 -12 5 -13 10 -3 31
10 23 12 24 24 7 7 -10 13 -21 13 -25z m1485 -6 c69 -120 69 -121 7 -53 -49
52 -59 68 -51 82 5 10 11 18 13 18 2 0 16 -21 31 -47z m-1088 7 c16 -12 41
-20 64 -20 36 0 40 -3 74 -65 l36 -64 -38 -66 c-32 -55 -41 -64 -60 -60 -12 3
-32 1 -46 -4 -21 -8 -32 0 -118 100 -52 60 -95 112 -97 117 -2 6 128 73 156
81 2 1 15 -8 29 -19z m328 -79 c-6 -34 -8 -35 -21 -16 -17 23 -18 54 -3 92
l12 28 9 -34 c5 -19 7 -51 3 -70z m418 58 c42 -18 76 -36 75 -40 -2 -4 -47
-57 -101 -117 -91 -103 -101 -110 -124 -101 -13 5 -34 7 -46 4 -19 -5 -27 4
-59 62 l-36 68 36 62 c35 58 39 63 73 63 22 0 47 8 60 20 13 11 29 18 34 16 6
-2 45 -19 88 -37z m-1228 10 c11 -17 -1 -21 -15 -4 -8 9 -8 15 -2 15 6 0 14
-5 17 -11z m695 -69 c0 -3 -6 -14 -13 -25 -13 -16 -16 -14 -45 37 -18 31 -32
58 -32 62 0 4 20 -10 45 -31 25 -20 45 -40 45 -43z m274 33 c-43 -75 -45 -76
-61 -53 -14 19 -12 24 29 60 23 22 47 39 51 40 4 0 -4 -21 -19 -47z m599 -41
c32 -34 55 -67 52 -72 -5 -8 -129 42 -148 59 -9 9 23 83 33 79 3 -2 32 -31 63
-66z m-1523 49 c0 -12 -20 -25 -27 -18 -7 7 6 27 18 27 5 0 9 -4 9 -9z m65 -1
c3 -5 2 -10 -4 -10 -5 0 -13 5 -16 10 -3 6 -2 10 4 10 5 0 13 -4 16 -10z m631
-37 c-10 -10 -19 5 -10 18 6 11 8 11 12 0 2 -7 1 -15 -2 -18z m124 6 c0 -5 -4
-9 -10 -9 -5 0 -10 7 -10 16 0 8 5 12 10 9 6 -3 10 -10 10 -16z m-754 -12 l27
-24 -33 -11 c-37 -13 -60 -3 -60 28 0 37 27 40 66 7z m244 -84 c47 -53 89
-103 94 -111 5 -8 -53 28 -129 79 l-137 94 39 17 c21 10 40 18 43 18 3 0 44
-44 90 -97z m1042 71 l28 -14 -32 -58 c-74 -132 -66 -125 -162 -145 -84 -18
-106 -17 -106 4 0 6 46 62 102 125 109 122 106 120 170 88z m-1406 -12 c-18
-16 -18 -16 -6 6 6 13 14 21 18 18 3 -4 -2 -14 -12 -24z m736 2 c8 -7 -13 -74
-23 -74 -15 0 -20 39 -7 59 13 22 20 25 30 15z m168 -14 c12 -22 5 -60 -11
-60 -5 0 -9 4 -9 9 0 5 -3 23 -6 40 -7 36 9 43 26 11z m-860 -30 c-17 -11 -50
-13 -50 -3 0 3 8 15 17 25 15 17 18 17 32 3 14 -14 14 -17 1 -25z m160 -46
c23 -42 39 -78 36 -81 -2 -3 -18 -2 -34 2 -22 4 -42 23 -72 66 l-42 59 34 15
c18 8 34 14 35 15 0 0 20 -34 43 -76z m1334 41 c42 -19 76 -38 76 -43 0 -25
-35 -41 -133 -62 -59 -13 -109 -21 -112 -19 -4 4 82 159 89 159 2 0 38 -16 80
-35z m-759 14 c4 -6 -1 -16 -11 -24 -23 -16 -25 -15 -17 13 6 24 18 28 28 11z
m75 2 c0 -5 3 -18 7 -28 6 -17 5 -17 -15 1 -12 10 -19 23 -16 27 7 12 24 11
24 0z m-883 -23 c32 -30 31 -81 -2 -113 -33 -34 -70 -32 -107 5 -25 26 -29 36
-24 63 12 64 86 89 133 45z m492 -155 c2 -2 2 -6 -2 -9 -5 -5 -176 30 -181 38
-10 14 -76 138 -76 143 0 4 222 -142 259 -172z m1292 164 c44 -34 47 -89 7
-127 -49 -45 -128 -8 -128 60 0 30 6 43 26 59 30 23 71 27 95 8z m-1646 -58
c27 -38 32 -49 18 -46 -10 3 -34 9 -53 12 -65 13 -79 44 -32 69 15 8 28 15 29
16 0 0 18 -23 38 -51z m556 -42 c-23 -21 -45 -37 -48 -34 -3 3 10 30 28 61 32
53 33 54 48 34 13 -20 11 -24 -28 -61z m302 23 c20 -33 33 -60 28 -60 -4 0
-26 16 -49 35 -37 33 -40 38 -30 60 6 14 12 25 13 25 2 0 19 -27 38 -60z
m-203 4 c-9 -22 -13 -25 -20 -14 -6 10 -4 21 7 32 21 24 26 17 13 -18z m62 -7
c14 -40 14 -45 -2 -77 l-18 -34 -20 33 c-19 32 -19 35 -4 77 9 24 19 44 22 44
3 0 13 -19 22 -43z m41 -4 c-5 -12 -9 -10 -19 8 -19 35 -17 45 5 25 11 -10 17
-25 14 -33z m-560 -242 c165 -226 173 -238 121 -190 -22 20 -115 105 -209 189
-225 202 -217 194 -210 212 5 13 14 13 81 -1 l74 -15 143 -195z m1310 190 c-5
-3 -113 -98 -239 -210 -255 -228 -270 -240 -262 -226 3 6 56 101 117 212 l112
201 77 17 c42 9 102 23 132 30 47 10 56 10 64 -3 5 -8 4 -17 -1 -21z m-934
-20 c-13 -43 -40 -54 -47 -19 -3 15 48 72 56 63 2 -2 -2 -22 -9 -44z m55 40
c8 -12 -22 -81 -35 -81 -7 0 -8 7 -4 18 3 9 9 29 12 45 6 27 17 35 27 18z
m160 -18 c4 -16 9 -36 12 -45 8 -28 -11 -21 -24 7 -14 31 -16 65 -3 65 5 0 12
-12 15 -27z m79 -43 c-8 -30 -40 -25 -47 8 -4 15 -9 35 -13 46 -4 16 0 15 30
-8 25 -19 33 -32 30 -46z m-708 17 c1 -1 30 -54 65 -117 34 -63 72 -131 83
-150 33 -57 4 -23 -100 120 -130 177 -123 164 -83 156 19 -3 34 -7 35 -9z
m500 -35 c-22 -5 -29 3 -21 25 7 17 8 17 22 -2 13 -18 13 -20 -1 -23z m90 0
c-22 -5 -27 1 -19 23 7 17 8 17 21 -1 12 -17 12 -19 -2 -22z m-471 10 c61 -16
71 -21 77 -46 16 -60 59 -83 120 -64 24 7 43 8 48 2 5 -5 -8 -64 -28 -134 -36
-121 -38 -125 -65 -125 -26 0 -36 14 -132 185 -57 102 -103 188 -104 193 0 10
5 9 84 -11z m884 -60 c-183 -330 -171 -312 -200 -312 -25 0 -29 6 -52 83 -50
169 -50 165 -37 181 10 12 16 12 41 -1 49 -24 113 10 125 67 5 24 13 29 73 42
37 9 73 16 80 17 8 0 -4 -30 -30 -77z m-616 -8 c-3 -17 -8 -22 -15 -15 -11 11
-3 41 11 41 5 0 7 -12 4 -26z m36 -1 c-18 -43 -29 -50 -18 -12 6 18 10 35 10
36 0 2 4 3 10 3 6 0 5 -11 -2 -27z m60 -25 c-17 -29 -33 -55 -35 -57 -2 -3 -8
0 -15 7 -8 8 -7 23 6 57 15 39 21 45 47 45 l29 0 -32 -52z m147 8 c16 -41 14
-66 -3 -66 -7 0 -62 92 -62 104 0 3 11 6 24 6 20 0 28 -9 41 -44z m28 37 c10
-18 18 -67 10 -58 -16 18 -33 65 -23 65 5 0 11 -3 13 -7z m47 -8 c0 -8 0 -17
0 -20 0 -14 -15 -4 -22 14 -5 15 -3 21 7 21 8 0 15 -7 15 -15z m-118 -128
c-34 -38 -51 -40 -88 -12 l-34 26 27 47 c45 80 43 79 79 15 31 -54 32 -58 16
-76z m-159 16 c4 -3 -7 -31 -25 -62 -43 -78 -53 -86 -27 -21 12 30 24 63 26
73 6 18 15 22 26 10z m255 -50 c12 -31 20 -59 18 -61 -6 -6 -65 102 -60 110
11 18 22 5 42 -49z m-195 2 c15 -13 27 -26 27 -28 0 -6 -167 -147 -174 -147
-3 0 21 45 52 100 31 55 59 99 62 99 3 0 17 -11 33 -24z m169 -37 c19 -35 46
-81 59 -102 28 -48 19 -43 -83 43 l-78 65 27 28 c15 15 29 28 33 28 3 0 22
-28 42 -62z m-30 -79 c46 -39 84 -73 86 -74 2 -2 -1 -13 -8 -24 -10 -20 -19
-21 -170 -21 -152 0 -159 1 -165 21 -4 12 -3 25 2 29 29 30 159 139 165 140 4
0 44 -32 90 -71z"/>
</g>
</svg>
