<?xml version="1.0" standalone="no"?>
<!DOCTYPE svg PUBLIC "-//W3C//DTD SVG 20010904//EN"
 "http://www.w3.org/TR/2001/REC-SVG-20010904/DTD/svg10.dtd">
<svg version="1.0" xmlns="http://www.w3.org/2000/svg"
 width="225.000000pt" height="225.000000pt" viewBox="0 0 225.000000 225.000000"
 preserveAspectRatio="xMidYMid meet">

<g transform="translate(0.000000,225.000000) scale(0.100000,-0.100000)"
fill="#fff" stroke="none">
<path d="M735 2112 c-38 -18 -115 -92 -115 -111 0 -4 -33 -11 -72 -13 -86 -6
-151 -32 -208 -84 -67 -61 -93 -114 -98 -203 -4 -71 -2 -81 30 -143 l34 -67
-55 -28 c-263 -128 -266 -472 -6 -603 28 -14 52 -26 54 -27 2 -2 -9 -29 -25
-60 -42 -85 -46 -183 -10 -257 51 -104 162 -175 287 -184 54 -4 70 -8 74 -22
10 -33 92 -98 136 -110 119 -32 241 12 288 105 l26 49 0 806 0 806 -26 49
c-38 74 -99 109 -198 113 -58 2 -86 -2 -116 -16z m209 -56 c26 -13 48 -37 63
-65 23 -44 23 -48 23 -373 l0 -328 -80 0 -80 0 0 219 0 219 36 36 c33 33 36
41 31 74 -13 80 -101 109 -158 53 -17 -18 -29 -40 -29 -56 0 -36 26 -82 50
-90 19 -6 20 -15 20 -231 l0 -224 -76 0 c-70 0 -78 -2 -105 -29 -23 -23 -29
-39 -29 -70 l0 -41 -79 0 c-77 0 -80 1 -114 35 -45 45 -86 47 -128 6 -40 -41
-40 -91 0 -132 42 -41 83 -39 128 6 34 34 37 35 114 35 l79 0 0 -201 0 -200
-35 -33 c-54 -51 -47 -119 16 -152 78 -40 165 46 125 125 -9 17 -25 35 -36 41
-19 10 -20 21 -20 273 0 191 3 266 12 275 8 8 64 12 185 12 l173 0 0 -432 c0
-418 -1 -433 -21 -475 -14 -29 -35 -52 -63 -68 -81 -47 -76 -66 -76 304 0 321
0 330 20 336 21 7 50 53 50 80 0 30 -29 72 -59 85 -64 26 -131 -19 -131 -88 0
-27 8 -42 35 -68 l35 -33 0 -320 c0 -350 3 -333 -57 -310 -35 13 -69 44 -98
90 -23 36 -25 36 -102 41 -87 5 -145 29 -201 82 -96 89 -102 212 -18 331 41
56 39 61 -34 89 -105 39 -188 129 -209 227 -27 123 53 256 190 318 35 16 65
21 146 21 92 0 103 -2 113 -20 12 -23 60 -50 89 -50 29 0 79 46 86 80 7 33
-15 84 -44 100 -40 21 -82 12 -117 -25 l-33 -36 -88 3 -88 3 -33 64 c-57 114
-39 218 52 298 58 51 120 73 203 73 l63 0 29 48 c59 95 173 124 275 68z m-66
-198 c18 -18 15 -43 -8 -63 -17 -15 -24 -16 -45 -7 -43 20 -28 82 20 82 12 0
26 -5 33 -12z m-208 -358 c15 -29 3 -59 -26 -66 -30 -8 -54 11 -54 40 0 46 59
64 80 26z m-286 -346 c9 -8 16 -22 16 -29 0 -7 -7 -21 -16 -29 -30 -30 -74
-13 -74 29 0 42 44 59 74 29z m490 -140 c30 -30 13 -74 -29 -74 -27 0 -45 18
-45 45 0 42 44 59 74 29z m-206 -386 c18 -18 15 -43 -8 -63 -17 -15 -24 -16
-45 -7 -43 20 -28 82 20 82 12 0 26 -5 33 -12z"/>
<path d="M1293 2106 c-57 -27 -93 -73 -113 -141 -8 -29 -10 -264 -8 -825 l3
-786 26 -49 c47 -93 169 -137 288 -105 45 12 126 77 136 111 5 16 16 19 59 19
93 0 193 45 254 114 50 57 65 95 70 176 4 70 1 80 -30 142 l-34 67 53 27 c119
58 195 167 201 289 7 134 -69 255 -200 319 l-58 28 20 28 c55 77 66 201 26
285 -49 103 -164 176 -288 183 -38 2 -68 8 -68 13 0 19 -77 93 -115 110 -60
27 -157 25 -222 -5z m87 -356 c0 -288 -2 -330 -15 -330 -18 0 -55 -56 -55 -83
0 -86 117 -127 170 -60 32 41 27 89 -15 129 l-35 33 0 322 0 322 32 -7 c47 -9
92 -43 121 -93 l27 -43 63 0 c83 0 145 -22 202 -72 108 -95 119 -218 31 -343
-39 -54 -36 -69 14 -80 16 -4 56 -24 88 -45 98 -63 144 -141 144 -242 0 -109
-67 -204 -186 -263 -43 -22 -63 -25 -151 -25 -101 0 -101 0 -123 30 -64 86
-203 9 -162 -91 29 -69 103 -80 156 -24 l33 36 88 -3 88 -3 33 -64 c92 -182
-22 -356 -241 -369 -77 -5 -79 -5 -102 -41 -48 -76 -96 -102 -183 -102 -71 0
-128 32 -159 90 -23 44 -23 48 -23 373 l0 328 80 0 80 0 0 -219 0 -219 -36
-36 c-33 -33 -36 -41 -31 -74 13 -80 101 -109 158 -53 17 18 29 40 29 56 0 36
-26 82 -50 90 -19 6 -20 15 -20 231 l0 224 76 0 c70 0 78 2 105 29 23 23 29
39 29 70 l0 41 79 0 c77 0 80 -1 114 -35 45 -45 86 -47 128 -6 40 41 40 91 0
132 -44 43 -114 35 -142 -17 -12 -22 -18 -24 -96 -24 l-83 0 0 201 0 200 35
33 c54 51 47 119 -16 152 -78 40 -165 -46 -125 -125 9 -17 25 -35 36 -41 19
-10 20 -21 20 -273 0 -191 -3 -266 -12 -275 -8 -8 -64 -12 -185 -12 l-173 0 0
433 0 434 23 44 c23 44 83 88 120 89 16 0 17 -22 17 -330z m261 10 c37 -20 18
-80 -26 -80 -43 0 -58 39 -28 72 19 21 27 22 54 8z m-203 -392 c17 -17 15 -53
-3 -68 -38 -31 -96 27 -65 65 15 18 51 20 68 3z m490 -140 c27 -27 7 -78 -29
-78 -21 0 -49 26 -49 45 0 35 53 58 78 33z m-280 -350 c7 -7 12 -21 12 -33 0
-44 -60 -63 -80 -26 -14 27 -13 37 6 55 18 19 45 21 62 4z m-217 -348 c37 -20
18 -80 -26 -80 -42 0 -59 44 -29 74 18 19 28 20 55 6z"/>
</g>
</svg>
