<?xml version="1.0" standalone="no"?>
<!DOCTYPE svg PUBLIC "-//W3C//DTD SVG 20010904//EN"
 "http://www.w3.org/TR/2001/REC-SVG-20010904/DTD/svg10.dtd">
<svg version="1.0" xmlns="http://www.w3.org/2000/svg"
 width="200.000000pt" height="200.000000pt" viewBox="0 0 200.000000 200.000000"
 preserveAspectRatio="xMidYMid meet">

<g transform="translate(0.000000,200.000000) scale(0.100000,-0.100000)"
fill="#fff" stroke="none">
<path d="M247 1554 c-4 -4 -7 -247 -7 -540 l0 -533 -47 -3 c-35 -2 -48 -7 -48
-18 0 -13 102 -15 855 -15 753 0 855 2 855 15 0 11 -13 16 -47 18 l-48 3 -2
297 -3 297 -115 0 -115 0 -3 -297 -2 -298 -40 0 -40 0 -2 238 -3 237 -115 0
-115 0 -3 -237 -2 -238 -40 0 -40 0 -2 358 -3 357 -115 0 -115 0 -3 -357 -2
-358 -40 0 -40 0 -2 238 -3 237 -115 0 -115 0 -3 -237 -2 -238 -40 0 -40 0 -2
538 -3 537 -111 3 c-60 1 -113 -1 -117 -4z m193 -554 l0 -520 -80 0 -80 0 0
520 0 520 80 0 80 0 0 -520z m640 -180 l0 -340 -80 0 -80 0 0 340 0 340 80 0
80 0 0 -340z m640 -60 l0 -280 -80 0 -80 0 0 280 0 280 80 0 80 0 0 -280z
m-960 -60 l0 -220 -80 0 -80 0 0 220 0 220 80 0 80 0 0 -220z m640 0 l0 -220
-80 0 -80 0 0 220 0 220 80 0 80 0 0 -220z"/>
<path d="M1353 1551 c-64 -16 -141 -62 -187 -111 -25 -27 -46 -55 -46 -62 0
-7 27 -38 60 -69 129 -123 313 -142 462 -47 51 32 118 101 118 120 0 7 -26 37
-58 69 -40 39 -77 63 -118 79 -64 24 -177 35 -231 21z m229 -64 c29 -14 71
-44 93 -67 l39 -40 -39 -40 c-22 -23 -65 -53 -95 -68 -47 -23 -68 -27 -140
-27 -72 0 -93 4 -140 27 -30 15 -73 45 -94 67 l-40 41 35 36 c73 75 149 105
256 100 52 -2 86 -10 125 -29z"/>
<path d="M1391 1466 c-87 -48 -50 -186 49 -186 51 0 100 49 100 99 0 75 -83
124 -149 87z m89 -46 c11 -11 20 -29 20 -40 0 -11 -9 -29 -20 -40 -11 -11 -29
-20 -40 -20 -11 0 -29 9 -40 20 -11 11 -20 29 -20 40 0 11 9 29 20 40 11 11
29 20 40 20 11 0 29 -9 40 -20z"/>
</g>
</svg>
