<?xml version="1.0" standalone="no"?>
<!DOCTYPE svg PUBLIC "-//W3C//DTD SVG 20010904//EN"
 "http://www.w3.org/TR/2001/REC-SVG-20010904/DTD/svg10.dtd">
<svg version="1.0" xmlns="http://www.w3.org/2000/svg"
 width="200.000000pt" height="200.000000pt" viewBox="0 0 200.000000 200.000000"
 preserveAspectRatio="xMidYMid meet">

<g transform="translate(0.000000,200.000000) scale(0.100000,-0.100000)"
fill="#fff" stroke="none">
<path d="M652 1990 c-57 -12 -115 -46 -143 -83 -26 -36 -36 -103 -21 -146 l11
-31 -43 0 c-84 0 -149 -75 -150 -174 -1 -28 2 -63 7 -78 7 -25 4 -29 -36 -46
-61 -27 -92 -79 -94 -158 -1 -52 -5 -64 -31 -92 -66 -70 -59 -194 15 -273 l24
-26 -24 -16 c-14 -9 -36 -40 -51 -68 -29 -59 -34 -134 -14 -201 15 -52 83
-128 113 -128 22 0 23 -2 14 -36 -22 -76 29 -145 147 -201 65 -31 73 -38 89
-78 22 -58 99 -128 160 -145 91 -26 221 10 268 72 11 15 25 51 29 80 5 29 12
423 15 876 l5 823 -46 44 c-79 76 -155 102 -244 85z m134 -58 c48 -27 93 -68
104 -97 6 -15 10 -127 10 -256 l0 -230 -29 21 c-54 38 -177 68 -197 47 -16
-15 8 -35 50 -40 56 -8 112 -36 146 -72 24 -25 25 -33 28 -168 2 -78 1 -161
-3 -184 -6 -41 -8 -43 -39 -43 -18 0 -56 7 -86 16 -43 13 -54 13 -61 2 -5 -7
-3 -18 4 -25 14 -14 120 -43 158 -43 l26 0 -5 -137 c-2 -76 -7 -140 -9 -143
-3 -3 -41 -5 -86 -5 -58 1 -92 6 -115 18 -37 20 -86 82 -113 145 -17 40 -41
54 -54 32 -11 -17 47 -122 94 -171 54 -56 93 -69 204 -69 l77 0 -1 -112 c-1
-197 -12 -284 -40 -314 -23 -25 -76 -54 -99 -54 -8 0 -9 26 -5 89 10 117 2
150 -45 210 -41 52 -74 71 -93 52 -7 -7 5 -26 41 -65 l52 -55 0 -93 c0 -51 -3
-103 -6 -115 -8 -29 -41 -30 -94 -3 -43 22 -71 56 -101 125 -11 25 -28 49 -37
52 -55 17 -144 68 -166 94 -46 54 -31 101 66 212 37 41 58 73 54 82 -9 24 -18
19 -83 -45 -64 -61 -104 -80 -132 -63 -9 5 -27 30 -41 54 -34 61 -34 147 -1
206 28 49 59 63 137 63 29 0 56 5 60 12 9 15 -24 38 -55 38 -13 0 -45 10 -69
21 -35 17 -49 32 -64 67 -25 57 -20 123 12 157 l23 24 39 -39 c45 -45 77 -59
89 -39 6 10 -7 27 -41 57 -83 72 -91 166 -19 226 54 46 77 36 139 -61 30 -46
78 -106 105 -132 l50 -47 -29 -60 c-31 -63 -39 -124 -19 -131 7 -3 16 4 19 14
4 10 20 50 36 89 l29 72 60 4 c63 5 103 28 82 49 -7 7 -22 7 -52 -1 -85 -22
-144 16 -237 155 -81 120 -104 169 -104 221 0 132 93 180 199 104 22 -17 45
-30 50 -30 26 0 19 26 -19 75 -65 85 -73 141 -26 194 51 57 168 78 232 43z"/>
<path d="M1200 1961 c-74 -26 -116 -36 -142 -33 -31 3 -39 0 -54 -23 -17 -26
-17 -29 -1 -57 15 -26 17 -71 17 -414 l0 -384 108 0 c96 0 111 -2 127 -20 23
-26 59 -26 85 0 24 24 25 38 4 68 -18 26 -65 30 -84 7 -9 -11 -35 -15 -101
-15 l-89 0 0 140 0 140 61 0 c46 0 67 -5 86 -20 58 -45 129 35 75 83 -25 23
-55 21 -77 -3 -14 -16 -31 -20 -82 -20 l-63 0 0 210 c0 130 4 210 10 210 5 0
16 12 24 28 11 21 31 33 99 56 47 15 90 25 96 22 17 -11 91 -123 91 -138 0
-25 -98 -112 -126 -113 -17 0 -34 -10 -47 -27 -19 -25 -19 -28 -4 -52 33 -49
93 -41 104 14 7 35 103 130 132 130 19 0 61 43 61 62 0 5 -11 20 -25 34 -18
18 -31 23 -49 18 -21 -5 -30 3 -72 65 -27 39 -51 71 -54 70 -3 0 -52 -17 -110
-38z"/>
<path d="M1564 1715 c-8 -13 -13 -28 -10 -34 11 -17 -102 -106 -129 -103 -27
4 -65 -29 -65 -56 0 -10 7 -27 15 -38 21 -27 21 -209 0 -230 -8 -9 -15 -24
-15 -35 0 -25 35 -59 60 -59 26 0 60 34 60 60 0 11 -9 29 -20 40 -17 17 -20
33 -20 110 0 77 3 93 20 110 11 11 20 30 21 43 1 28 91 107 122 107 30 0 137
-128 137 -162 0 -52 56 -80 95 -48 35 29 6 100 -41 100 -11 0 -41 27 -74 66
-42 51 -54 73 -52 94 6 57 -72 84 -104 35z"/>
<path d="M1555 1385 c-31 -30 -31 -49 -4 -76 15 -15 30 -20 52 -16 24 3 61 -9
150 -51 l117 -55 0 -38 0 -39 -92 0 -92 0 -48 -47 c-26 -26 -62 -52 -79 -57
-40 -14 -54 -35 -45 -70 15 -60 106 -50 106 13 0 19 14 44 41 75 l41 47 82 -3
81 -3 3 -80 c3 -78 2 -81 -28 -110 -17 -16 -42 -29 -57 -30 -16 0 -33 -10 -45
-26 -17 -23 -18 -30 -8 -50 16 -30 29 -39 56 -39 26 0 54 30 54 58 0 12 16 39
35 61 l35 39 -2 167 -3 167 -125 57 c-98 46 -126 63 -132 83 -7 21 -43 48 -64
48 -3 0 -16 -11 -29 -25z"/>
<path d="M1011 941 c-27 -27 -27 -55 1 -83 21 -21 21 -23 15 -340 l-5 -319 90
-95 90 -94 157 0 157 0 53 75 c35 48 67 81 90 92 31 16 36 23 36 53 0 27 -6
37 -26 49 -24 13 -29 13 -53 -2 -20 -13 -26 -26 -26 -52 0 -27 -13 -53 -51
-105 l-51 -70 -79 0 -79 0 0 97 c0 75 4 100 16 114 35 39 13 99 -36 99 -53 0
-79 -60 -40 -95 17 -16 20 -31 20 -117 l0 -98 -34 0 c-30 0 -43 10 -110 84
l-76 83 0 157 0 156 50 0 c37 0 59 -6 81 -22 28 -21 32 -21 57 -7 21 11 27 22
27 49 0 27 -6 38 -27 49 -25 14 -29 14 -57 -7 -22 -16 -44 -22 -81 -22 l-50 0
0 135 c0 124 2 138 22 165 l22 30 -21 28 c-25 34 -56 39 -82 13z"/>
<path d="M1250 890 c-11 -11 -20 -29 -20 -40 0 -25 34 -60 58 -60 10 0 33 -20
52 -45 l34 -45 68 0 68 0 0 -37 c0 -21 -7 -47 -15 -57 -44 -58 30 -131 78 -78
21 23 22 65 2 82 -9 7 -15 29 -15 51 l0 39 45 0 c39 0 55 -8 136 -66 101 -75
99 -68 54 -169 l-24 -55 -110 0 c-69 0 -111 4 -111 10 0 6 -11 15 -25 22 -55
25 -102 -54 -57 -95 23 -21 41 -21 69 -2 15 10 55 15 143 17 l123 3 44 104
c35 85 41 107 31 117 -7 7 -60 47 -118 88 l-104 76 -132 0 -132 0 -25 33 c-17
23 -23 41 -20 59 3 18 -2 33 -16 47 -26 26 -55 27 -81 1z"/>
</g>
</svg>
